<?xml version="1.0" encoding="utf-8"?>
<!-- Generator: Adobe Illustrator 24.0.2, SVG Export Plug-In . SVG Version: 6.00 Build 0)  -->
<svg version="1.1" id="Layer_1" xmlns="http://www.w3.org/2000/svg" xmlns:xlink="http://www.w3.org/1999/xlink" x="0px" y="0px"
	 viewBox="0 0 100 100" style="enable-background:new 0 0 100 100;" xml:space="preserve">
<style type="text/css">
	.st0{fill:#F7AD41;}
</style>
<g id="_x32_2">
	<g>
		<g>
			<path class="st0" d="M95.5,27.1c-1.8,2.8-3.6,5.4-5.5,7.9c-1,1.3-1.8,2.6-2.9,3.7c-1,1.2-2.2,2.2-3.3,3.3
				c-2.2,2.2-4.3,4.6-6.4,6.9l-1.5,1.8l-1.5,1.9c-1,1.2-1.9,2.5-2.9,3.8c1.3-2.9,2.7-5.8,4.4-8.6c1.6-2.8,3.4-5.5,5.2-8.1
				c0.5-0.7,0.9-1.3,1.4-2c0.5-0.7,0.9-1.3,1.5-1.9c0.5-0.6,1.1-1.2,1.7-1.7l1.8-1.6C89.9,30.4,92.5,28.5,95.5,27.1"/>
			<path class="st0" d="M68.8,15.5c-0.7,3.5-1.5,6.8-2.3,10.1c-0.4,1.6-0.8,3.3-1.3,4.9c-0.6,1.6-1.2,3.2-1.8,4.7
				c-1.2,3.2-2.3,6.4-3.4,9.6c-1.1,3.2-2.1,6.5-3.1,9.8c0.1-1.7,0.3-3.4,0.4-5.1c0.2-1.7,0.4-3.4,0.7-5.1c0.2-1.7,0.5-3.4,0.8-5.1
				c0.3-1.7,0.6-3.4,1-5.1c0.2-0.9,0.4-1.7,0.6-2.5c0.2-0.8,0.4-1.7,0.7-2.5c0.5-1.7,1.3-3.2,2-4.8C64.6,21.1,66.4,18.1,68.8,15.5"
				/>
			<path class="st0" d="M49.9,23.6c1.5,5.2,2,10.4,2.2,15.5c0.2,5.2-0.2,10.4-0.4,15.5c-0.3,5.2-0.5,10.4-0.8,15.5L50.4,78
				c-0.2,2.6-0.3,5.2-0.5,7.8c-0.2-2.6-0.4-5.2-0.5-7.8l-0.4-7.8c-0.3-5.2-0.5-10.4-0.8-15.5c-0.2-5.2-0.6-10.4-0.4-15.5
				C47.9,33.9,48.3,28.7,49.9,23.6"/>
			<path class="st0" d="M75.4,33.1l-4.6,11c-1.5,3.6-3.2,7.2-4.8,10.8c-1.6,3.6-3,7.3-4.4,11.1c-0.7,1.9-1.3,3.8-2,5.6
				c-0.6,1.9-1.3,3.8-1.9,5.7c0.3-2,0.6-4,1-5.9c0.4-2,0.8-3.9,1.2-5.9c0.2-1,0.5-2,0.7-2.9c0.2-1,0.5-1.9,0.8-2.9l0.8-2.9l0.9-2.9
				c1.2-3.8,2.6-7.7,4.7-11.2c0.5-0.9,1-1.7,1.6-2.6c0.6-0.8,1.1-1.7,1.8-2.5C72.4,36,73.8,34.4,75.4,33.1"/>
			<path class="st0" d="M4.2,27.1C6,29.8,7.8,32.4,9.7,35c1,1.3,1.8,2.6,2.9,3.7c1,1.2,2.2,2.2,3.3,3.3c2.2,2.2,4.3,4.6,6.4,6.9
				l1.5,1.8l1.5,1.9c1,1.2,1.9,2.5,2.9,3.8c-1.3-2.9-2.7-5.8-4.4-8.6c-1.6-2.8-3.4-5.5-5.2-8.1c-0.5-0.7-0.9-1.3-1.4-2
				c-0.5-0.7-0.9-1.3-1.5-1.9c-0.5-0.6-1.1-1.2-1.7-1.7l-1.8-1.6C9.8,30.4,7.2,28.5,4.2,27.1"/>
			<path class="st0" d="M30.9,15.5c0.7,3.5,1.5,6.8,2.3,10.1c0.4,1.6,0.8,3.3,1.3,4.9c0.6,1.6,1.2,3.2,1.8,4.7
				c1.2,3.2,2.3,6.4,3.4,9.6c1.1,3.2,2.1,6.5,3.1,9.8c-0.1-1.7-0.3-3.4-0.4-5.1c-0.2-1.7-0.4-3.4-0.7-5.1c-0.2-1.7-0.5-3.4-0.8-5.1
				c-0.3-1.7-0.6-3.4-1-5.1c-0.2-0.9-0.4-1.7-0.6-2.5c-0.2-0.8-0.4-1.7-0.7-2.5c-0.5-1.7-1.3-3.2-2-4.8
				C35.1,21.1,33.3,18.1,30.9,15.5"/>
			<path class="st0" d="M24.3,33.1l4.6,11c1.5,3.6,3.2,7.2,4.8,10.8c1.6,3.6,3,7.3,4.4,11.1c0.7,1.9,1.3,3.8,2,5.6
				c0.6,1.9,1.3,3.8,1.9,5.7c-0.3-2-0.6-4-1-5.9c-0.4-2-0.8-3.9-1.2-5.9c-0.2-1-0.5-2-0.7-2.9c-0.2-1-0.5-1.9-0.8-2.9l-0.8-2.9
				l-0.9-2.9c-1.2-3.8-2.6-7.7-4.7-11.2c-0.5-0.9-1-1.7-1.6-2.6c-0.6-0.8-1.1-1.7-1.8-2.5C27.3,36,25.9,34.4,24.3,33.1"/>
		</g>
	</g>
</g>
</svg>
