<?xml version="1.0" encoding="utf-8"?>
<!-- Generator: Adobe Illustrator 24.0.2, SVG Export Plug-In . SVG Version: 6.00 Build 0)  -->
<svg version="1.1" id="Layer_1" xmlns="http://www.w3.org/2000/svg" xmlns:xlink="http://www.w3.org/1999/xlink" x="0px" y="0px"
	 viewBox="0 0 100 100" style="enable-background:new 0 0 100 100;" xml:space="preserve">
<style type="text/css">
	.st0{fill:#EA5B2D;}
</style>
<g id="_x32_3">
	<g>
		<g>
			<path class="st0" d="M80.8,35.9c-3.2,4.1-6.2,8.3-8.7,12.8c-1.4,2.5-2.7,5-3.8,7.6c-0.6,1.3-1.1,2.6-1.6,3.9
				c-0.4,1.3-0.9,2.6-1.3,4C63.8,69.5,63,75,62.9,80.5c0.9-5.4,2.5-10.6,4.8-15.5c0.5-1.2,1.2-2.4,1.8-3.6c0.7-1.2,1.3-2.3,2-3.5
				c1.4-2.3,2.9-4.5,4.6-6.6c3.3-4.2,6.9-8.1,10.8-11.6c2-1.8,4-3.5,6.1-5.1c1-0.8,2.1-1.6,3.2-2.3c0,0,0.1-0.1,0.1-0.1L80.8,35.9z"
				/>
			<path class="st0" d="M69.6,35.2c1.4-3.1,2.9-6.1,4.5-9c1.3-2.3,2.6-4.4,4-6.6l-12.2,7.9c-0.7,1.8-1.3,3.7-1.9,5.5
				c-1,3.4-1.9,6.8-2.7,10.2c-1.6,6.8-2.7,13.7-3.5,20.6c-0.8,6.9-1.3,13.8-1.3,20.7c0.8-6.8,2.1-13.6,3.6-20.3
				c1.6-6.7,3.5-13.2,5.8-19.6C67,41.4,68.2,38.3,69.6,35.2"/>
			<polygon class="st0" points="45.7,18.9 49.9,90.2 50,89.1 50.1,90.2 54.3,18.9 50,4.1 			"/>
			<path class="st0" d="M33.2,60.2c-0.5-1.3-1-2.6-1.6-3.9c-1.1-2.6-2.4-5.1-3.8-7.6c-2.5-4.5-5.5-8.8-8.7-12.8L3.7,32.3
				c0,0,0.1,0.1,0.1,0.1c1.1,0.7,2.1,1.5,3.2,2.3C9,36.3,11.1,38,13,39.7c3.9,3.6,7.6,7.4,10.8,11.6c1.6,2.1,3.2,4.3,4.6,6.6
				c0.7,1.1,1.4,2.3,2,3.5c0.6,1.2,1.3,2.4,1.8,3.6c2.3,4.9,3.9,10.1,4.8,15.5c-0.1-5.5-1-11-2.6-16.4
				C34.2,62.8,33.7,61.5,33.2,60.2"/>
			<path class="st0" d="M38.8,43.3c-0.8-3.4-1.7-6.8-2.7-10.2c-0.6-1.8-1.2-3.7-1.9-5.5L22,19.7c1.4,2.1,2.7,4.3,4,6.6
				c1.6,2.9,3.1,5.9,4.5,9c1.4,3.1,2.6,6.2,3.8,9.4c2.3,6.4,4.2,13,5.8,19.6c1.6,6.7,2.8,13.4,3.6,20.3c0-6.9-0.5-13.8-1.3-20.7
				C41.5,57,40.4,50.1,38.8,43.3"/>
		</g>
	</g>
</g>
</svg>
