<?xml version="1.0" encoding="utf-8"?>
<!-- Generator: Adobe Illustrator 24.0.2, SVG Export Plug-In . SVG Version: 6.00 Build 0)  -->
<svg version="1.1" id="Layer_1" xmlns="http://www.w3.org/2000/svg" xmlns:xlink="http://www.w3.org/1999/xlink" x="0px" y="0px"
	 viewBox="0 0 100 100" style="enable-background:new 0 0 100 100;" xml:space="preserve">
<style type="text/css">
	.st0{fill:#F2C933;}
</style>
<g>
	<g>
		<path class="st0" d="M49.3,19.8c0,0,0-3.8-9.3-3.8c-8.8,0-12.1,0.2-15.9-2.5c0,0,2.3,6.3,9,6.3c-9.1,6.2-6.8,23.2-6.8,23.2
			s3.1-3.1,12.2-9.4c0,0-0.9-8.8,10.8-8.8c1.8,0,3.8,0.2,5.4,1.3C54.7,23.6,54.7,19.8,49.3,19.8z"/>
		<path class="st0" d="M66.6,54c-8,5.5-10.8,7.6-15.6,10.9c-12.6,8.8-10.7,17.6-10.7,17.6S29.6,70,47.5,57.4
			c7.7-5.4,8-5.6,15.4-10.8C73.7,39,73.7,34,73.7,34S81.6,43.7,66.6,54z"/>
		<path class="st0" d="M65.6,34.9c-8,5.6-20.6,14.2-25.3,17.5C27.7,61.2,29.6,70,29.6,70s-10.8-12.5,7.2-25.1
			c7.7-5.5,17.7-12.3,25.1-17.5c12.6-8.9,7.2-22.6,7.2-22.6S85.9,20.7,65.6,34.9z"/>
		<path class="st0" d="M66.6,74.1l-4.8,3.6c-12.6,8.8-10.7,17.6-10.7,17.6s-10.8-12.7,7.2-25.1l4.6-3.5C73.7,59,73.7,54,73.7,54
			S81.6,63.8,66.6,74.1z"/>
	</g>
</g>
</svg>
