<svg width="32" height="32" viewBox="0 0 32 32" fill="none" xmlns="http://www.w3.org/2000/svg">
<path opacity="0.7" d="M3.16667 31.6667C2.29584 31.6667 1.55062 31.3569 0.930996 30.7373C0.310333 30.1166 0 29.3709 0 28.5V11.0834C0 10.2125 0.310333 9.46675 0.930996 8.84608C1.55062 8.22647 2.29584 7.91666 3.16667 7.91666H11.0833V3.16666C11.0833 2.29583 11.3937 1.55008 12.0143 0.929412C12.6339 0.309805 13.3792 0 14.25 0H17.4167C18.2875 0 19.0333 0.309805 19.6539 0.929412C20.2735 1.55008 20.5833 2.29583 20.5833 3.16666V7.91666H28.5C29.3708 7.91666 30.1166 8.22647 30.7373 8.84608C31.3569 9.46675 31.6667 10.2125 31.6667 11.0834V28.5C31.6667 29.3709 31.3569 30.1166 30.7373 30.7373C30.1166 31.3569 29.3708 31.6667 28.5 31.6667H3.16667ZM6.33334 25.3334H15.8333V24.6209C15.8333 24.1723 15.7077 23.7564 15.4565 23.3732C15.2063 22.9911 14.8569 22.6945 14.4083 22.4834C13.8806 22.2459 13.3464 22.068 12.806 21.9498C12.2645 21.8305 11.6903 21.7709 11.0833 21.7709C10.4764 21.7709 9.9027 21.8305 9.36225 21.9498C8.82075 22.068 8.28611 22.2459 7.75834 22.4834C7.30973 22.6945 6.96034 22.9911 6.71017 23.3732C6.45895 23.7564 6.33334 24.1723 6.33334 24.6209V25.3334ZM19 22.9584H25.3333V20.5834H19V22.9584ZM11.0833 20.5834C11.7431 20.5834 12.3036 20.3522 12.7648 19.8899C13.2272 19.4286 13.4583 18.8681 13.4583 18.2084C13.4583 17.5487 13.2272 16.9882 12.7648 16.5269C12.3036 16.0645 11.7431 15.8334 11.0833 15.8334C10.4236 15.8334 9.8631 16.0645 9.40184 16.5269C8.9395 16.9882 8.70834 17.5487 8.70834 18.2084C8.70834 18.8681 8.9395 19.4286 9.40184 19.8899C9.8631 20.3522 10.4236 20.5834 11.0833 20.5834ZM19 18.2084H25.3333V15.8334H19V18.2084ZM14.25 11.0834H17.4167V3.16666H14.25V11.0834Z" fill="white"/>
</svg>
