<svg width="29" height="29" viewBox="0 0 29 29" fill="none" xmlns="http://www.w3.org/2000/svg">
<path opacity="0.7" d="M26.8375 28.5C23.4333 28.5 20.1152 27.7411 16.8831 26.2232C13.6499 24.7063 10.7867 22.7008 8.2935 20.2065C5.79922 17.7133 3.79367 14.8501 2.27683 11.6169C0.75894 8.38481 0 5.06667 0 1.6625C0 1.1875 0.158333 0.79167 0.475 0.475C0.79167 0.158333 1.1875 0 1.6625 0H8.075C8.44445 0 8.77431 0.11875 9.06458 0.35625C9.3549 0.59375 9.5264 0.89722 9.5792 1.26667L10.6083 6.80833C10.6611 7.17778 10.6548 7.51397 10.5893 7.81692C10.5228 8.12092 10.3708 8.39167 10.1333 8.62917L6.33333 12.5083C7.44167 14.4083 8.82708 16.1896 10.4896 17.8521C12.1521 19.5146 13.9861 20.9528 15.9917 22.1667L19.7125 18.4458C19.95 18.2083 20.2603 18.0299 20.6435 17.9107C21.0256 17.7924 21.4014 17.7597 21.7708 17.8125L27.2333 18.9208C27.6028 19 27.9062 19.1779 28.1437 19.4544C28.3813 19.732 28.5 20.0556 28.5 20.425V26.8375C28.5 27.3125 28.3417 27.7083 28.025 28.025C27.7083 28.3417 27.3125 28.5 26.8375 28.5Z" fill="white"/>
</svg>
