<?xml version="1.0" encoding="utf-8"?>
<!-- Generator: Adobe Illustrator 24.0.2, SVG Export Plug-In . SVG Version: 6.00 Build 0)  -->
<svg version="1.1" id="Layer_1" xmlns="http://www.w3.org/2000/svg" xmlns:xlink="http://www.w3.org/1999/xlink" x="0px" y="0px"
	 viewBox="0 0 48.1 55" style="enable-background:new 0 0 48.1 55;" xml:space="preserve">
<style type="text/css">
	.st0{fill:#FFFFFF;}
</style>
<g>
	<g>
		<path class="st0" d="M30.7,21.8c-1.9,0-3.8,0-5.6,0c0-0.8,0-1.5,0-2.3c0-0.4-0.2-0.6-0.5-0.7c-0.3,0-0.7,0-1,0s-0.4,0.2-0.4,0.6
			c0,1.4,0,2.7,0,4.1c0,0,0,0,0.1,0.1c0.4-0.4,1-0.6,1.6-0.6c1.1,0,2.2,0,3.2,0.1c0.6,0.1,1.3,0.5,1.8,0.9c0.7,0.4,0.9,1.1,0.9,2
			c0,3.2-0.1,6.4,0,9.6c0.1,2.8-1.4,4.3-3.8,4.9c-2.1,0.6-4.2,0.5-6.3-0.1c-2.2-0.6-3.3-2.1-3.3-4.4c0-5.6,0-11.2,0-16.8
			c0-2.8,1.3-4.4,4-5c1.9-0.4,3.7-0.4,5.6,0.1s3.2,1.5,3.6,3.6c0.1,0.5,0.1,1,0.1,1.5C30.7,20.2,30.7,21,30.7,21.8z M21.6,37.9
			c0.2,0.3,0.5,0.4,0.9,0.4c0.2,0,0.4-0.1,0.7-0.1c0.3-0.1,0.4-0.2,0.4-0.5c0-1.1,0-2.3,0-3.4c0-0.6,0.1-0.8,0.7-1
			c0.2-0.1,0.4-0.1,0.6-0.1c0.3,0,0.4-0.2,0.4-0.4c0-0.4,0-0.9,0-1.3c0-0.6,0-0.6,0.6-0.7s1.2-0.2,1.8-0.3c0.1,0,0.3-0.1,0.3-0.2
			c0-0.5,0-1.1,0-1.6c-0.1-0.5-0.4-0.7-0.8-0.6s-0.7,0.2-1.1,0.3c-0.5,0.2-1.1,0.4-1.6,0.5c-0.3,0.1-0.6,0-0.8-0.3
			c-0.1-0.1-0.2-0.2-0.3-0.2c-0.4,0-0.9,0.1-1.3,0.1c-0.3,0.1-0.5,0.5-0.4,0.7s0.1,0.4,0.1,0.6c0,2.4,0,4.8,0,7.3
			C21.7,37.2,21.7,37.5,21.6,37.9z"/>
		<path class="st0" d="M27,53.4c-1,0.6-1.9,1.1-2.8,1.6c-0.1,0.1-0.3,0-0.4-0.1c-2.6-1.5-5.2-2.9-7.8-4.4
			c-5.2-2.9-10.4-5.9-15.6-8.8C0.1,41.5,0,41.3,0,40.9c0-7.2,0-14.4,0-21.6c0-0.3,0.1-0.5,0.4-0.7c6.3-3.6,12.7-7.2,19-10.8
			c0.2-0.1,0.4-0.1,0.6,0c0.9,0.5,1.7,1,2.7,1.5c-0.5,0.3-1,0.6-1.5,0.9c-6,3.4-11.9,6.8-17.8,10.2C3.1,20.6,3,20.7,3,21.1
			c0,6.1,0,12.1,0,18.2c0,0.3,0.1,0.5,0.4,0.7c7.7,4.4,15.5,8.8,23.2,13.2C26.7,53.2,26.9,53.3,27,53.4z"/>
		<path class="st0" d="M21.1,1.6C22.1,1,23,0.5,23.9,0c0.1,0,0.3,0,0.5,0.1c2.4,1.4,4.9,2.7,7.3,4.1c5.4,3,10.7,6,16.1,9
			c0.2,0.1,0.3,0.3,0.3,0.5c0,7.3,0,14.5,0,21.8c0,0.3-0.1,0.4-0.3,0.6c-6.3,3.6-12.6,7.3-18.9,10.9c-0.3,0.2-0.5,0.2-0.8,0
			c-0.8-0.5-1.7-1-2.5-1.5c0.1-0.1,0.2-0.1,0.3-0.2c6.3-3.6,12.6-7.2,18.9-10.8c0.3-0.2,0.5-0.4,0.5-0.8c0-6.1,0-12.1,0-18.2
			c0-0.3-0.1-0.5-0.4-0.6C38.7,11.4,32.5,8,26.3,4.5C24.5,3.5,22.8,2.6,21.1,1.6z"/>
		<path class="st0" d="M48.1,37.6c0,1.1,0,2.2,0,3.3c0,0.1-0.2,0.3-0.3,0.3c-4.1,2.4-8.2,4.7-12.3,7.1c-2.2,1.3-4.5,2.6-6.7,3.9
			c-0.2,0.1-0.4,0.1-0.7,0c-7.8-4.4-15.6-8.8-23.4-13.3c-0.2-0.1-0.3-0.3-0.3-0.6c0-5.5,0-11,0-16.5c0-0.3,0.1-0.5,0.4-0.6
			c0.9-0.4,1.7-0.8,2.6-1.3c0,0.3,0,0.5,0,0.7c0,5.3,0,10.6,0,15.9c0,0.4,0.1,0.6,0.5,0.9c6.7,3.8,13.5,7.6,20.2,11.5
			c0.3,0.1,0.4,0.1,0.7,0c6.3-3.6,12.6-7.3,19-10.9C47.8,37.7,47.9,37.7,48.1,37.6z"/>
		<path class="st0" d="M40.7,35c0-0.2,0-0.3,0-0.5c0-5.4,0-10.8,0-16.2c0-0.3-0.1-0.5-0.4-0.7C33.5,13.8,26.7,10,20,6.1
			c-0.2-0.1-0.4-0.1-0.7,0C13,9.8,6.7,13.4,0.4,17c-0.1,0.1-0.2,0.1-0.4,0.2c0-0.7,0-1.3,0-1.9c0-0.5-0.1-1.1,0.1-1.5
			s0.8-0.5,1.2-0.8c6-3.4,12-6.9,18-10.3c0.2-0.1,0.4-0.1,0.7,0c7.8,4.4,15.5,8.8,23.3,13.2c0.3,0.2,0.4,0.4,0.4,0.7
			c0,5.5,0,11,0,16.5c0,0.3-0.1,0.5-0.4,0.6C42.4,34.1,41.6,34.5,40.7,35z"/>
		<path class="st0" d="M25,31.5c-0.1-0.2-0.3-0.3-0.4-0.5C24.9,31,25.1,31.1,25,31.5c0.1,0.4,0.1,0.7,0.1,1.1c0,0.2-0.1,0.4-0.3,0.4
			h-0.1c-1.1,0-0.9,0.1-0.9-1.1c0-0.3,0.4-0.5,0.8-0.4C24.6,31.4,24.8,31.5,25,31.5C24.9,31.5,24.9,31.5,25,31.5z"/>
	</g>
</g>
</svg>
