<?xml version="1.0" encoding="utf-8"?>
<!-- Generator: Adobe Illustrator 24.0.2, SVG Export Plug-In . SVG Version: 6.00 Build 0)  -->
<svg version="1.1" id="Layer_1" xmlns="http://www.w3.org/2000/svg" xmlns:xlink="http://www.w3.org/1999/xlink" x="0px" y="0px"
	 viewBox="0 0 100 100" style="enable-background:new 0 0 100 100;" xml:space="preserve">
<style type="text/css">
	.st0{fill:#008200;}
	.st1{fill:#007DB4;}
	.st2{fill:#FFAF00;}
</style>
<g id="_x38_">
	<path class="st0" d="M96.5,91.7H74l-16.3-9.5c-4.7-2.7-10.6-2.7-15.3,0L26,91.7H3.5L40.6,70c2.8-1.7,6.1-2.5,9.4-2.5h0
		c3.3,0,6.5,0.9,9.4,2.5L96.5,91.7z"/>
	<path class="st1" d="M51.5,8.3l11.3,19.5l0,18.9c0,5.5,2.9,10.5,7.6,13.2l16.4,9.4L98,88.8L60.7,67.5c-2.9-1.6-5.2-4-6.9-6.9l0,0
		c-1.6-2.9-2.5-6.1-2.5-9.4L51.5,8.3z"/>
	<path class="st2" d="M2,88.8l11.3-19.5l16.4-9.4c4.7-2.7,7.7-7.8,7.6-13.2l0-18.9L48.5,8.3l0.2,43c0,3.3-0.8,6.5-2.5,9.4l0,0
		c-1.6,2.9-4,5.2-6.9,6.9L2,88.8z"/>
</g>
</svg>
