<?xml version="1.0" encoding="utf-8"?>
<!-- Generator: Adobe Illustrator 24.0.2, SVG Export Plug-In . SVG Version: 6.00 Build 0)  -->
<svg version="1.1" id="Layer_1" xmlns="http://www.w3.org/2000/svg" xmlns:xlink="http://www.w3.org/1999/xlink" x="0px" y="0px"
	 viewBox="0 0 100 100" style="enable-background:new 0 0 100 100;" xml:space="preserve">
<style type="text/css">
	.st0{fill:#FFFFFF;}
	.st1{fill:#008200;}
	.st2{fill:#007DB4;}
	.st3{fill:#FFAF00;}
</style>
<g>
	<g>
		<path class="st0" d="M16.2,77.7h8.3L24,81h-4.4l-0.4,2.5h3.7l-0.4,3.1h-3.7l-0.5,3.8h4.4l-0.5,3.3H14L16.2,77.7z"/>
		<path class="st0" d="M25.3,77.7h3.8l-1.8,12.7h4l-0.5,3.3h-7.8L25.3,77.7z"/>
		<path class="st0" d="M33.9,77.7h3.8l-2.2,16h-3.8L33.9,77.7z"/>
		<path class="st0" d="M40.7,81H38l0.5-3.3h9.1L47.1,81h-2.6l-1.8,12.7h-3.8L40.7,81z"/>
		<path class="st0" d="M48.3,77.7h8.3L56.1,81h-4.4l-0.4,2.5H55l-0.4,3.1h-3.7l-0.5,3.8h4.4l-0.5,3.3h-8.3L48.3,77.7z"/>
		<path class="st0" d="M59.2,88.5l4-0.3c-0.2,1.4-0.3,2.3,0.9,2.3c1.1,0,1.2-0.5,1.2-1.3c0-1.7-5-3-5-6.8c0-3.7,2.6-4.8,5-4.8
			c4.1,0,4.8,1.5,4.8,4.4l-3.9,0.3c0.1-0.7,0.1-1.4-0.8-1.4c-1,0-1.1,0.6-1.1,1.1c0,1.7,5,3,5,6.8c0,3.2-1.7,5-5.1,5
			C59.3,93.8,59,91.5,59.2,88.5z"/>
		<path class="st0" d="M71.6,77.7h3.8l-2.2,16h-3.8L71.6,77.7z"/>
		<path class="st0" d="M79.2,89.9l-1.8,3.8h-3.7l4.3-8.4l-1.9-7.6h3.8l0.8,3.3l1.6-3.3H86l-4.1,7.9l2,8.1h-3.8L79.2,89.9z"/>
	</g>
	<g>
		<path class="st1" d="M83.8,66.8H67.4l-11.9-6.9c-3.4-2-7.7-2-11.1,0l-11.9,6.9H16.2l27-15.7c2.1-1.2,4.4-1.8,6.8-1.8h0
			c2.4,0,4.7,0.6,6.8,1.8L83.8,66.8z"/>
		<path class="st2" d="M51.1,6.2l8.2,14.2l0,13.7c0,4,2.1,7.6,5.6,9.6l11.9,6.8l8.2,14.2L57.8,49.2c-2.1-1.2-3.8-2.9-5-5l0,0
			c-1.2-2.1-1.8-4.4-1.8-6.8L51.1,6.2z"/>
		<path class="st3" d="M15.1,64.7l8.2-14.2l11.9-6.8c3.4-2,5.6-5.6,5.6-9.6l0-13.7l8.2-14.2L49,37.4c0,2.4-0.6,4.7-1.8,6.8l0,0
			c-1.2,2.1-2.9,3.8-5,5L15.1,64.7z"/>
	</g>
	<g>
		<path class="st0" d="M34.5,73.4c0-0.2,0-0.5,0.1-1.1c0.3-1.5,0.9-2.3,2.5-2.3c1.7,0,2.2,0.8,2.1,1.9l-1.5,0.2c0.1-0.5,0-1-0.7-1
			c-0.7,0-1,0.4-1.1,1.3c-0.1,0.5-0.1,0.7-0.1,0.9c0,0.5,0.2,0.8,0.9,0.8c0.5,0,0.8-0.3,0.9-1.1l1.4,0.2c-0.3,1.2-1,2-2.4,2
			C35,75.3,34.5,74.5,34.5,73.4z"/>
		<path class="st0" d="M43.5,73.3c0-0.2,0-0.4,0.1-1c0.2-1.3,0.9-2.3,2.5-2.3c1.7,0,2.2,0.9,2.2,1.9c0,0.2,0,0.5-0.1,1.1
			c-0.2,1.4-1,2.3-2.6,2.3C44.1,75.3,43.5,74.4,43.5,73.3z M46.9,72.9c0.1-0.5,0.1-0.7,0.1-0.9c0-0.7-0.3-0.9-0.9-0.9
			c-0.5,0-0.9,0.2-1.1,1.3c-0.1,0.5-0.1,0.7-0.1,0.8c0,0.7,0.4,0.9,0.9,0.9C46.3,74.2,46.7,74,46.9,72.9z"/>
		<path class="st0" d="M53.5,70.1h2.1c1,0,1.9,0.3,1.9,1.4c0,1.6-1.1,2-2.1,2h-1.2L54,75.3h-1.3L53.5,70.1z M55.4,72.4
			c0.5,0,0.8-0.1,0.8-0.8c0-0.4-0.3-0.5-0.9-0.5h-0.7l-0.2,1.3H55.4z"/>
		<path class="st0" d="M63.3,70h1.3l0.8,5.2h-1.3L64,74.4h-1.6L62,75.3h-1.3L63.3,70z M63,73.4h0.9L63.7,72L63,73.4z"/>
	</g>
</g>
</svg>
